<mxfile host="app.diagrams.net" modified="2024-02-12T20:32:43.270Z" agent="Mozilla/5.0 (Macintosh; Intel Mac OS X 10.15; rv:122.0) Gecko/20100101 Firefox/122.0" version="23.0.2" etag="_Kz6YhRjcDCVMKKaFpCv" type="github">
  <diagram name="Page-1" id="Rt0FHrWxGjOVR7pPODBM">
    <mxGraphModel>
      <root>
        <mxCell id="0" />
        <mxCell id="1" parent="0" />
      </root>
    </mxGraphModel>
  </diagram>
</mxfile>
